<?xml version="1.0" standalone="no"?><!DOCTYPE svg PUBLIC "-//W3C//DTD SVG 1.1//EN" "http://www.w3.org/Graphics/SVG/1.1/DTD/svg11.dtd"><svg t="1622792615234" class="icon" viewBox="0 0 1024 1024" version="1.1" xmlns="http://www.w3.org/2000/svg" p-id="2337" xmlns:xlink="http://www.w3.org/1999/xlink" width="200" height="200"><defs><style type="text/css"></style></defs><path d="M830.025143 655.725714C951.552 634.331429 1024 535.369143 1024 471.497143c0-15.177143-7.003429-26.093714-19.474286-26.093714-18.688 0-47.122286 24.923429-100.882285 24.923428-95.030857 0-155.410286-57.654857-155.410286-144.512 0-51.803429 27.666286-89.197714 27.666286-109.842286 0-12.068571-8.192-20.242286-23.771429-19.858285-72.045714 3.108571-163.2 83.748571-183.844571 187.355428 12.068571 11.282286 23.771429 26.477714 33.097142 46.738286 131.291429 10.130286 226.322286 109.056 228.644572 225.517714zM161.645714 855.149714h421.430857c110.244571 0 195.931429-83.748571 195.931429-191.634285 0-107.117714-87.241143-188.123429-203.702857-188.891429-45.586286-86.857143-126.592-137.508571-220.854857-137.508571-126.592 0-234.093714 98.157714-245.778286 226.304C42.459429 583.277714 0 639.36 0 707.913143c0 87.259429 65.828571 147.236571 161.645714 147.236571z" p-id="2338"></path></svg>